<svg xmlns="http://www.w3.org/2000/svg" viewBox="0 0 1874 1741" fill="#2d1a0e" aria-hidden="true">
<g transform="translate(0,1741) scale(0.1,-0.1)">
<path d="M8995 17404 c-523 -31 -846 -74 -1149 -153 -276 -72 -420 -134 -520
-223 -56 -50 -56 -50 -56 -434 0 -211 2 -384 5 -384 2 0 79 38 169 85 91 46
209 98 263 115 656 207 2133 246 2991 79 257 -50 383 -95 654 -230 54 -27 100
-49 103 -49 3 0 5 168 5 373 0 423 3 407 -85 467 -229 158 -734 280 -1393 336
-165 14 -845 27 -987 18z"/><path d="M9130 16470 c-459 -17 -508 -23 -895 -115 -192 -45 -365 -86 -383
-90 -39 -8 -39 -12 9 -138 38 -101 46 -174 60 -624 18 -549 -5 -1224 -47
-1388 -44 -170 -170 -300 -363 -374 -260 -100 -1083 -237 -2905 -481 -1607
-216 -2493 -364 -3116 -520 -644 -162 -1083 -479 -1305 -943 -132 -273 -180
-520 -179 -917 1 -467 83 -926 300 -1680 586 -2030 1806 -4262 3249 -5943 413
-481 889 -962 1330 -1343 1843 -1591 3789 -2202 5675 -1783 1580 351 3195
1442 4660 3149 1599 1864 2903 4378 3374 6505 96 437 134 708 143 1025 16 609
-115 1000 -446 1330 -227 226 -493 378 -904 519 -496 169 -1232 303 -3067 556
-1451 200 -1987 285 -2651 421 -328 66 -418 92 -537 150 -109 53 -181 119
-229 209 -70 132 -83 256 -90 856 -5 444 7 965 27 1125 5 39 23 114 39 165 36
110 33 115 -58 150 -133 49 -569 134 -820 159 -117 11 -541 31 -621 28 -25 -1
-137 -4 -250 -8z m2245 -3460 c243 -18 535 -49 1025 -110 261 -33 592 -73 735
-90 367 -43 939 -120 1500 -201 974 -142 1783 -258 1879 -270 99 -12 99 -12
41 -68 -56 -53 -75 -88 -408 -736 -575 -1122 -1056 -2044 -1557 -2985 -232
-437 -321 -607 -765 -1470 -431 -837 -659 -1247 -984 -1769 -194 -313 -259
-381 -360 -381 -77 0 -116 25 -165 104 -180 293 -1070 2000 -1680 3226 -371
743 -430 878 -483 1100 -34 143 -42 445 -19 700 41 446 187 1621 246 1980 71
432 123 636 190 740 68 106 193 194 318 224 70 17 293 20 487 6z m-3525 -34
c198 -36 324 -129 383 -283 39 -101 141 -760 257 -1655 38 -296 85 -643 104
-771 53 -350 69 -520 63 -687 -4 -133 -7 -154 -40 -251 -50 -150 -85 -223
-546 -1144 -381 -763 -595 -1179 -973 -1895 -83 -157 -196 -370 -251 -475
-233 -442 -414 -749 -490 -832 -49 -53 -88 -62 -148 -35 -105 46 -222 215
-486 697 -60 110 -188 342 -285 515 -306 549 -537 984 -1108 2080 -695 1335
-841 1605 -1610 2990 -540 972 -604 1089 -599 1094 2 2 60 11 129 20 69 9 413
60 765 112 1717 255 3170 444 3830 499 427 35 873 45 1005 21z m-6237 -861
c56 -36 165 -233 311 -558 77 -172 983 -1890 1802 -3418 161 -301 433 -816
604 -1145 597 -1146 852 -1609 1148 -2084 308 -494 448 -671 603 -763 91 -54
155 -70 254 -65 273 14 497 282 950 1133 67 127 201 379 298 560 96 182 355
692 575 1135 406 815 533 1058 715 1365 161 272 244 394 326 476 115 114 179
125 295 47 27 -17 72 -60 100 -94 37 -44 381 -663 1201 -2158 1150 -2097 1150
-2097 1242 -2195 165 -176 296 -260 423 -269 129 -9 238 45 393 197 96 94 101
101 399 616 707 1224 1323 2368 2548 4730 810 1563 1255 2411 1279 2439 45 53
160 70 276 41 95 -24 289 -126 398 -210 228 -177 372 -442 421 -778 20 -133
21 -402 1 -567 -49 -424 -248 -1188 -476 -1828 -739 -2079 -2091 -4251 -3604
-5791 -1178 -1198 -2382 -1960 -3565 -2256 -1298 -325 -2625 -89 -3950 703
-1726 1032 -3453 3063 -4741 5577 -646 1261 -1122 2600 -1261 3545 -30 210
-33 608 -5 740 44 206 155 396 337 580 139 141 335 266 480 305 72 19 186 15
223 -10z"/><path d="M7379 16141 c-14 -5 -35 -14 -47 -20 -22 -12 -22 -12 -22 -1153 0
-1141 0 -1141 56 -1135 77 8 151 47 212 110 146 155 167 305 167 1162 -1 793
-13 899 -108 981 -64 54 -179 78 -258 55z"/><path d="M11130 16109 c-50 -15 -88 -56 -105 -111 -27 -93 -39 -370 -39 -938
-1 -710 13 -883 80 -997 52 -89 190 -202 308 -253 46 -19 46 -19 46 1140 0
1160 0 1160 -53 1160 -30 0 -87 2 -128 5 -41 2 -90 0 -109 -6z"/>
</g>
</svg>